<?xml version="1.0" encoding="UTF-8"?>
<!DOCTYPE svg PUBLIC "-//W3C//DTD SVG 1.1//EN" "http://www.w3.org/Graphics/SVG/1.1/DTD/svg11.dtd">
<svg xmlns="http://www.w3.org/2000/svg" version="1.1" width="544px" height="516px" style="shape-rendering:geometricPrecision; text-rendering:geometricPrecision; image-rendering:optimizeQuality; fill-rule:evenodd; clip-rule:evenodd" xmlns:xlink="http://www.w3.org/1999/xlink">
<g><path style="opacity:0.999" fill="#fefdfd" d="M 284.5,12.5 C 283.686,14.631 283.186,16.9644 283,19.5C 281.789,99.1699 280.789,178.837 280,258.5C 355.738,286.134 431.571,313.468 507.5,340.5C 507.179,345.695 507.513,350.695 508.5,355.5C 508.5,356.167 508.5,356.833 508.5,357.5C 430.521,329.18 352.521,300.847 274.5,272.5C 256.833,283.667 239.167,294.833 221.5,306C 235.882,311.405 250.215,316.905 264.5,322.5C 251.13,331.513 237.796,340.513 224.5,349.5C 239.366,355.764 254.366,361.764 269.5,367.5C 256.302,376.53 242.969,385.363 229.5,394C 244.699,400.43 260.032,406.597 275.5,412.5C 262.302,421.53 248.969,430.363 235.5,439C 250.39,444.944 265.39,450.611 280.5,456C 282.167,456.667 283.833,456.667 285.5,456C 298.339,447.748 311.006,439.248 323.5,430.5C 308.286,424.394 292.952,418.561 277.5,413C 291.428,403.453 305.595,394.287 320,385.5C 335.627,391.208 351.127,397.208 366.5,403.5C 353.302,412.53 339.969,421.363 326.5,430C 341.824,435.607 357.157,441.107 372.5,446.5C 361.07,454.08 349.737,461.914 338.5,470C 335.589,471.761 332.589,473.261 329.5,474.5C 314.414,468.468 299.081,462.801 283.5,457.5C 270.629,464.763 258.296,472.763 246.5,481.5C 230.41,476.622 214.41,471.456 198.5,466C 197.619,465.292 196.953,464.458 196.5,463.5C 209.613,456.441 222.28,448.607 234.5,440C 218.655,433.607 202.655,427.607 186.5,422C 200.167,413 213.833,404 227.5,395C 212.945,389.147 198.279,383.48 183.5,378C 181.365,377.365 179.365,377.699 177.5,379C 164.661,387.252 151.994,395.752 139.5,404.5C 154.605,410.815 169.938,416.648 185.5,422C 172.758,429.694 160.425,437.86 148.5,446.5C 139.039,444.402 129.873,441.402 121,437.5C 120.667,437.833 120.333,438.167 120,438.5C 112.828,434.995 105.662,431.662 98.5,428.5C 111.777,421.525 124.444,413.525 136.5,404.5C 122.024,398.45 107.357,392.784 92.5,387.5C 79.4257,395.36 66.759,403.693 54.5,412.5C 52.9681,413.37 51.4681,413.036 50,411.5C 49.5,392.17 49.3334,372.836 49.5,353.5C 63.4928,345.744 76.9928,337.078 90,327.5C 89.4095,342.5 89.5761,357.5 90.5,372.5C 148.256,335.206 205.756,297.54 263,259.5C 265.16,179.511 266.66,99.5114 267.5,19.5C 270.667,16.2231 274.334,13.3897 278.5,11C 280.775,10.595 282.775,11.095 284.5,12.5 Z"/></g>
<g><path style="opacity:0.994" fill="#ffef3b" d="M 284.5,12.5 C 359.767,38.2003 434.934,64.2003 510,90.5C 509.863,178.834 509.363,267.167 508.5,355.5C 507.513,350.695 507.179,345.695 507.5,340.5C 431.571,313.468 355.738,286.134 280,258.5C 280.789,178.837 281.789,99.1699 283,19.5C 283.186,16.9644 283.686,14.631 284.5,12.5 Z"/></g>
<g><path style="opacity:0.994" fill="#3d6aed" d="M 267.5,19.5 C 266.66,99.5114 265.16,179.511 263,259.5C 205.756,297.54 148.256,335.206 90.5,372.5C 89.5761,357.5 89.4095,342.5 90,327.5C 76.9928,337.078 63.4928,345.744 49.5,353.5C 50.3544,304.987 51.0211,256.653 51.5,208.5C 51.369,209.239 51.5357,209.906 52,210.5C 65.747,201.043 79.5803,191.71 93.5,182.5C 94.1288,198.157 94.2954,213.824 94,229.5C 107.747,220.043 121.58,210.71 135.5,201.5C 135.457,216.777 135.623,232.11 136,247.5C 149.271,238.118 162.771,229.118 176.5,220.5C 177.492,227.982 177.825,235.648 177.5,243.5C 177.334,251.174 177.5,258.841 178,266.5C 191.747,257.043 205.58,247.71 219.5,238.5C 221.362,222.547 221.862,206.547 221,190.5C 207.253,199.957 193.42,209.29 179.5,218.5C 178.421,202.836 178.421,187.169 179.5,171.5C 193.471,162.177 207.471,152.844 221.5,143.5C 223.362,127.547 223.862,111.547 223,95.5C 209.253,104.957 195.42,114.29 181.5,123.5C 181.288,108.205 181.288,92.8718 181.5,77.5C 209.871,57.8082 238.537,38.4748 267.5,19.5 Z"/></g>
<g><path style="opacity:1" fill="#fffefd" d="M 458.5,257.5 C 457.833,268.833 457.167,280.167 456.5,291.5C 416.855,277.595 377.355,263.262 338,248.5C 338.126,186.161 338.959,123.828 340.5,61.5C 355.5,66.8333 370.5,72.1667 385.5,77.5C 385.616,126.504 385.616,175.504 385.5,224.5C 409.565,233.966 433.899,242.633 458.5,250.5C 458.5,252.833 458.5,255.167 458.5,257.5 Z"/></g>
<g><path style="opacity:1" fill="#fcfcfe" d="M 181.5,77.5 C 181.288,92.8718 181.288,108.205 181.5,123.5C 195.42,114.29 209.253,104.957 223,95.5C 223.862,111.547 223.362,127.547 221.5,143.5C 207.471,152.844 193.471,162.177 179.5,171.5C 179.5,163.833 179.5,156.167 179.5,148.5C 180.82,140.99 180.82,133.323 179.5,125.5C 178.893,125.624 178.56,125.957 178.5,126.5C 164.662,135.251 150.995,144.251 137.5,153.5C 137.396,137.821 137.729,122.154 138.5,106.5C 152.307,96.0933 166.64,86.4266 181.5,77.5 Z"/></g>
<g><path style="opacity:0.983" fill="#3e6bed" d="M 138.5,106.5 C 137.729,122.154 137.396,137.821 137.5,153.5C 123.529,162.823 109.529,172.156 95.5,181.5C 94.4789,165.838 94.4789,150.171 95.5,134.5C 109.976,125.426 124.309,116.093 138.5,106.5 Z"/></g>
<g><path style="opacity:1" fill="#3f6bed" d="M 178.5,126.5 C 179.492,133.648 179.825,140.981 179.5,148.5C 179.5,156.167 179.5,163.833 179.5,171.5C 165.529,180.823 151.529,190.156 137.5,199.5C 136.429,184.17 136.429,168.836 137.5,153.5C 150.995,144.251 164.662,135.251 178.5,126.5 Z"/></g>
<g><path style="opacity:1" fill="#89a4f4" d="M 178.5,126.5 C 178.56,125.957 178.893,125.624 179.5,125.5C 180.82,133.323 180.82,140.99 179.5,148.5C 179.825,140.981 179.492,133.648 178.5,126.5 Z"/></g>
<g><path style="opacity:1" fill="#fdfdfe" d="M 95.5,134.5 C 94.4789,150.171 94.4789,165.838 95.5,181.5C 109.529,172.156 123.529,162.823 137.5,153.5C 136.429,168.836 136.429,184.17 137.5,199.5C 151.529,190.156 165.529,180.823 179.5,171.5C 178.421,187.169 178.421,202.836 179.5,218.5C 193.42,209.29 207.253,199.957 221,190.5C 221.862,206.547 221.362,222.547 219.5,238.5C 205.58,247.71 191.747,257.043 178,266.5C 177.5,258.841 177.334,251.174 177.5,243.5C 178.82,235.657 178.82,227.657 177.5,219.5C 176.893,219.624 176.56,219.957 176.5,220.5C 162.771,229.118 149.271,238.118 136,247.5C 135.623,232.11 135.457,216.777 135.5,201.5C 121.58,210.71 107.747,220.043 94,229.5C 94.2954,213.824 94.1288,198.157 93.5,182.5C 79.5803,191.71 65.747,201.043 52,210.5C 51.5357,209.906 51.369,209.239 51.5,208.5C 50.3809,193.199 50.2142,177.865 51,162.5C 65.9128,153.294 80.7461,143.96 95.5,134.5 Z"/></g>
<g><path style="opacity:1" fill="#89a3f4" d="M 176.5,220.5 C 176.56,219.957 176.893,219.624 177.5,219.5C 178.82,227.657 178.82,235.657 177.5,243.5C 177.825,235.648 177.492,227.982 176.5,220.5 Z"/></g>
<g><path style="opacity:1" fill="#fdfdfe" d="M 113.5,242.5 C 113.574,257.988 113.741,273.655 114,289.5C 127.667,280.167 141.333,270.833 155,261.5C 155.8,277.542 155.3,293.542 153.5,309.5C 139.58,318.71 125.747,328.043 112,337.5C 112.252,321.839 112.252,306.172 112,290.5C 98.3333,299.833 84.6667,309.167 71,318.5C 70.8015,302.488 71.3015,286.488 72.5,270.5C 86.4061,261.391 100.073,252.058 113.5,242.5 Z"/></g>
<g><path style="opacity:0.996" fill="#fb624e" d="M 508.5,357.5 C 463.545,387.651 418.212,417.317 372.5,446.5C 357.157,441.107 341.824,435.607 326.5,430C 339.969,421.363 353.302,412.53 366.5,403.5C 351.127,397.208 335.627,391.208 320,385.5C 305.595,394.287 291.428,403.453 277.5,413C 292.952,418.561 308.286,424.394 323.5,430.5C 311.006,439.248 298.339,447.748 285.5,456C 283.833,456.667 282.167,456.667 280.5,456C 265.39,450.611 250.39,444.944 235.5,439C 248.969,430.363 262.302,421.53 275.5,412.5C 260.032,406.597 244.699,400.43 229.5,394C 242.969,385.363 256.302,376.53 269.5,367.5C 254.366,361.764 239.366,355.764 224.5,349.5C 237.796,340.513 251.13,331.513 264.5,322.5C 250.215,316.905 235.882,311.405 221.5,306C 239.167,294.833 256.833,283.667 274.5,272.5C 352.521,300.847 430.521,329.18 508.5,357.5 Z"/></g>
<g><path style="opacity:1" fill="#fff8b2" d="M 458.5,257.5 C 458.832,269.186 458.499,280.852 457.5,292.5C 456.893,292.376 456.56,292.043 456.5,291.5C 457.167,280.167 457.833,268.833 458.5,257.5 Z"/></g>
<g><path style="opacity:1" fill="#fb634f" d="M 176.5,333.5 C 191.777,338.037 206.777,343.37 221.5,349.5C 207.985,359.512 193.819,368.512 179,376.5C 164.207,371.683 149.707,366.183 135.5,360C 149.572,351.641 163.239,342.808 176.5,333.5 Z"/></g>
<g><path style="opacity:0.992" fill="#fb634f" d="M 196.5,463.5 C 180.344,458.226 164.344,452.559 148.5,446.5C 160.425,437.86 172.758,429.694 185.5,422C 169.938,416.648 154.605,410.815 139.5,404.5C 151.994,395.752 164.661,387.252 177.5,379C 179.365,377.699 181.365,377.365 183.5,378C 198.279,383.48 212.945,389.147 227.5,395C 213.833,404 200.167,413 186.5,422C 202.655,427.607 218.655,433.607 234.5,440C 222.28,448.607 209.613,456.441 196.5,463.5 Z"/></g>
<g><path style="opacity:0.983" fill="#fb634f" d="M 98.5,428.5 C 83.5289,423.734 68.8622,418.401 54.5,412.5C 66.759,403.693 79.4257,395.36 92.5,387.5C 107.357,392.784 122.024,398.45 136.5,404.5C 124.444,413.525 111.777,421.525 98.5,428.5 Z"/></g>
<g><path style="opacity:0.968" fill="#fb624e" d="M 329.5,474.5 C 317.375,482.795 304.875,490.461 292,497.5C 276.781,492.261 261.614,486.927 246.5,481.5C 258.296,472.763 270.629,464.763 283.5,457.5C 299.081,462.801 314.414,468.468 329.5,474.5 Z"/></g>
</svg>
